<svg width="494" height="734" viewBox="0 0 494 734" fill="none" xmlns="http://www.w3.org/2000/svg">
<g clip-path="url(#clip0_10_3046)">
<rect width="494" height="734" rx="25" fill="#B7B8C1"/>
<g filter="url(#filter0_f_10_3046)">
<circle cx="56" cy="64" r="98" fill="#B3E7FF"/>
</g>
<g filter="url(#filter1_f_10_3046)">
<circle cx="530.5" cy="691.5" r="108.5" fill="#E6BFFF"/>
</g>
<path d="M32.5568 56V32.7273H40.8523C42.6629 32.7273 44.1629 33.0568 45.3523 33.7159C46.5417 34.375 47.4318 35.2765 48.0227 36.4205C48.6136 37.5568 48.9091 38.8371 48.9091 40.2614C48.9091 41.6932 48.6098 42.9811 48.0114 44.125C47.4205 45.2614 46.5265 46.1629 45.3295 46.8295C44.1402 47.4886 42.6439 47.8182 40.8409 47.8182H35.1364V44.8409H40.5227C41.6667 44.8409 42.5947 44.6439 43.3068 44.25C44.0189 43.8485 44.5417 43.303 44.875 42.6136C45.2083 41.9242 45.375 41.1402 45.375 40.2614C45.375 39.3826 45.2083 38.6023 44.875 37.9205C44.5417 37.2386 44.0152 36.7045 43.2955 36.3182C42.5833 35.9318 41.6439 35.7386 40.4773 35.7386H36.0682V56H32.5568ZM57.6761 56.3864C56.5701 56.3864 55.5701 56.1818 54.6761 55.7727C53.7822 55.3561 53.0739 54.7538 52.5511 53.9659C52.036 53.178 51.7784 52.2121 51.7784 51.0682C51.7784 50.0833 51.9678 49.2727 52.3466 48.6364C52.7254 48 53.2367 47.4962 53.8807 47.125C54.5246 46.7538 55.2443 46.4735 56.0398 46.2841C56.8352 46.0947 57.6458 45.9508 58.4716 45.8523C59.517 45.7311 60.3655 45.6326 61.017 45.5568C61.6686 45.4735 62.142 45.3409 62.4375 45.1591C62.733 44.9773 62.8807 44.6818 62.8807 44.2727V44.1932C62.8807 43.2008 62.6004 42.4318 62.0398 41.8864C61.4867 41.3409 60.661 41.0682 59.5625 41.0682C58.4186 41.0682 57.517 41.322 56.858 41.8295C56.2064 42.3295 55.7557 42.8864 55.5057 43.5L52.3125 42.7727C52.6913 41.7121 53.2443 40.8561 53.9716 40.2045C54.7064 39.5455 55.5511 39.0682 56.5057 38.7727C57.4602 38.4697 58.464 38.3182 59.517 38.3182C60.214 38.3182 60.9527 38.4015 61.733 38.5682C62.5208 38.7273 63.2557 39.0227 63.9375 39.4545C64.6269 39.8864 65.1913 40.5038 65.6307 41.3068C66.0701 42.1023 66.2898 43.1364 66.2898 44.4091V56H62.9716V53.6136H62.8352C62.6155 54.053 62.286 54.4848 61.8466 54.9091C61.4072 55.3333 60.8428 55.6856 60.1534 55.9659C59.464 56.2462 58.6383 56.3864 57.6761 56.3864ZM58.4148 53.6591C59.3542 53.6591 60.1572 53.4735 60.8239 53.1023C61.4981 52.7311 62.0095 52.2462 62.358 51.6477C62.714 51.0417 62.892 50.3939 62.892 49.7045V47.4545C62.7708 47.5758 62.536 47.6894 62.1875 47.7955C61.8466 47.8939 61.4564 47.9811 61.017 48.0568C60.5777 48.125 60.1496 48.1894 59.733 48.25C59.3163 48.303 58.9678 48.3485 58.6875 48.3864C58.0284 48.4697 57.4261 48.6098 56.8807 48.8068C56.3428 49.0038 55.911 49.2879 55.5852 49.6591C55.267 50.0227 55.108 50.5076 55.108 51.1136C55.108 51.9545 55.4186 52.5909 56.0398 53.0227C56.661 53.447 57.4527 53.6591 58.4148 53.6591ZM72.3381 62.5455C71.8305 62.5455 71.3684 62.5038 70.9517 62.4205C70.535 62.3447 70.2244 62.2614 70.0199 62.1705L70.8381 59.3864C71.4593 59.553 72.0123 59.625 72.4972 59.6023C72.982 59.5795 73.41 59.3977 73.7812 59.0568C74.16 58.7159 74.4934 58.1591 74.7812 57.3864L75.2017 56.2273L68.8153 38.5455H72.4517L76.8722 52.0909H77.054L81.4744 38.5455H85.1222L77.929 58.3295C77.5956 59.2386 77.1714 60.0076 76.6562 60.6364C76.1411 61.2727 75.5275 61.75 74.8153 62.0682C74.1032 62.3864 73.2775 62.5455 72.3381 62.5455ZM88.3153 56V38.5455H91.5767V41.3864H91.7926C92.1563 40.4242 92.7509 39.6742 93.5767 39.1364C94.4025 38.5909 95.3911 38.3182 96.5426 38.3182C97.7093 38.3182 98.6866 38.5909 99.4744 39.1364C100.27 39.6818 100.857 40.4318 101.236 41.3864H101.418C101.834 40.4545 102.497 39.7121 103.406 39.1591C104.315 38.5985 105.399 38.3182 106.656 38.3182C108.24 38.3182 109.531 38.8144 110.531 39.8068C111.539 40.7992 112.043 42.2955 112.043 44.2955V56H108.645V44.6136C108.645 43.4318 108.323 42.5758 107.679 42.0455C107.035 41.5152 106.266 41.25 105.372 41.25C104.266 41.25 103.406 41.5909 102.793 42.2727C102.179 42.947 101.872 43.8144 101.872 44.875V56H98.4858V44.3977C98.4858 43.4508 98.1903 42.6894 97.5994 42.1136C97.0085 41.5379 96.2396 41.25 95.2926 41.25C94.6487 41.25 94.054 41.4205 93.5085 41.7614C92.9706 42.0947 92.535 42.5606 92.2017 43.1591C91.8759 43.7576 91.7131 44.4508 91.7131 45.2386V56H88.3153ZM124.119 56.3523C122.4 56.3523 120.919 55.9848 119.676 55.25C118.441 54.5076 117.487 53.4659 116.812 52.125C116.146 50.7765 115.812 49.197 115.812 47.3864C115.812 45.5985 116.146 44.0227 116.812 42.6591C117.487 41.2955 118.426 40.2311 119.631 39.4659C120.843 38.7008 122.259 38.3182 123.881 38.3182C124.866 38.3182 125.82 38.4811 126.744 38.8068C127.669 39.1326 128.498 39.6439 129.233 40.3409C129.968 41.0379 130.547 41.9432 130.972 43.0568C131.396 44.1629 131.608 45.5076 131.608 47.0909V48.2955H117.733V45.75H128.278C128.278 44.8561 128.097 44.0644 127.733 43.375C127.369 42.678 126.858 42.1288 126.199 41.7273C125.547 41.3258 124.782 41.125 123.903 41.125C122.949 41.125 122.116 41.3598 121.403 41.8295C120.699 42.2917 120.153 42.8977 119.767 43.6477C119.388 44.3902 119.199 45.197 119.199 46.0682V48.0568C119.199 49.2235 119.403 50.2159 119.812 51.0341C120.229 51.8523 120.809 52.4773 121.551 52.9091C122.294 53.3333 123.161 53.5455 124.153 53.5455C124.797 53.5455 125.384 53.4545 125.915 53.2727C126.445 53.0833 126.903 52.803 127.29 52.4318C127.676 52.0606 127.972 51.6023 128.176 51.0568L131.392 51.6364C131.134 52.5833 130.672 53.4129 130.006 54.125C129.347 54.8295 128.517 55.3788 127.517 55.7727C126.525 56.1591 125.392 56.3523 124.119 56.3523ZM138.776 45.6364V56H135.378V38.5455H138.639V41.3864H138.855C139.257 40.4621 139.885 39.7197 140.741 39.1591C141.605 38.5985 142.692 38.3182 144.003 38.3182C145.192 38.3182 146.234 38.5682 147.128 39.0682C148.022 39.5606 148.715 40.2955 149.207 41.2727C149.7 42.25 149.946 43.4583 149.946 44.8977V56H146.548V45.3068C146.548 44.0417 146.219 43.053 145.56 42.3409C144.901 41.6212 143.995 41.2614 142.844 41.2614C142.056 41.2614 141.355 41.4318 140.741 41.7727C140.135 42.1136 139.654 42.6136 139.298 43.2727C138.95 43.9242 138.776 44.7121 138.776 45.6364ZM162.651 38.5455V41.2727H153.116V38.5455H162.651ZM155.673 34.3636H159.071V50.875C159.071 51.5341 159.17 52.0303 159.366 52.3636C159.563 52.6894 159.817 52.9129 160.128 53.0341C160.446 53.1477 160.791 53.2045 161.162 53.2045C161.435 53.2045 161.673 53.1856 161.878 53.1477C162.082 53.1098 162.241 53.0795 162.355 53.0568L162.969 55.8636C162.772 55.9394 162.491 56.0152 162.128 56.0909C161.764 56.1742 161.31 56.2197 160.764 56.2273C159.87 56.2424 159.037 56.0833 158.264 55.75C157.491 55.4167 156.866 54.9015 156.389 54.2045C155.912 53.5076 155.673 52.6326 155.673 51.5795V34.3636ZM179.207 42.8068L176.128 43.3523C175.999 42.9583 175.795 42.5833 175.514 42.2273C175.241 41.8712 174.87 41.5795 174.401 41.3523C173.931 41.125 173.344 41.0114 172.639 41.0114C171.677 41.0114 170.874 41.2273 170.23 41.6591C169.586 42.0833 169.264 42.6326 169.264 43.3068C169.264 43.8902 169.48 44.3598 169.912 44.7159C170.344 45.072 171.041 45.3636 172.003 45.5909L174.776 46.2273C176.382 46.5985 177.579 47.1705 178.366 47.9432C179.154 48.7159 179.548 49.7197 179.548 50.9545C179.548 52 179.245 52.9318 178.639 53.75C178.041 54.5606 177.204 55.197 176.128 55.6591C175.06 56.1212 173.821 56.3523 172.412 56.3523C170.457 56.3523 168.863 55.9356 167.628 55.1023C166.393 54.2614 165.635 53.0682 165.355 51.5227L168.639 51.0227C168.844 51.8788 169.264 52.5265 169.901 52.9659C170.537 53.3977 171.366 53.6136 172.389 53.6136C173.503 53.6136 174.393 53.3826 175.06 52.9205C175.726 52.4508 176.06 51.8788 176.06 51.2045C176.06 50.6591 175.855 50.2008 175.446 49.8295C175.045 49.4583 174.427 49.178 173.594 48.9886L170.639 48.3409C169.01 47.9697 167.806 47.3788 167.026 46.5682C166.253 45.7576 165.866 44.7311 165.866 43.4886C165.866 42.4583 166.154 41.5568 166.73 40.7841C167.306 40.0114 168.101 39.4091 169.116 38.9773C170.132 38.5379 171.295 38.3182 172.605 38.3182C174.491 38.3182 175.976 38.7273 177.06 39.5455C178.143 40.3561 178.859 41.4432 179.207 42.8068Z" fill="black"/>
</g>
<defs>
<filter id="filter0_f_10_3046" x="-247.9" y="-239.9" width="607.8" height="607.8" filterUnits="userSpaceOnUse" color-interpolation-filters="sRGB">
<feFlood flood-opacity="0" result="BackgroundImageFix"/>
<feBlend mode="normal" in="SourceGraphic" in2="BackgroundImageFix" result="shape"/>
<feGaussianBlur stdDeviation="102.95" result="effect1_foregroundBlur_10_3046"/>
</filter>
<filter id="filter1_f_10_3046" x="216.1" y="377.1" width="628.8" height="628.8" filterUnits="userSpaceOnUse" color-interpolation-filters="sRGB">
<feFlood flood-opacity="0" result="BackgroundImageFix"/>
<feBlend mode="normal" in="SourceGraphic" in2="BackgroundImageFix" result="shape"/>
<feGaussianBlur stdDeviation="102.95" result="effect1_foregroundBlur_10_3046"/>
</filter>
<clipPath id="clip0_10_3046">
<rect width="494" height="734" rx="25" fill="white"/>
</clipPath>
</defs>
</svg>
